<?xml version="1.0" standalone="no"?>
<svg xmlns:xlink="http://www.w3.org/1999/xlink" id="wave" style="transform:rotate(0deg); transition: 0.3s" viewBox="0 0 1440 190" version="1.1" xmlns="http://www.w3.org/2000/svg"><defs><linearGradient id="sw-gradient-0" x1="0" x2="0" y1="1" y2="0"><stop stop-color="rgba(141, 169, 52, 1)" offset="0%"/><stop stop-color="rgba(141, 169, 52, 1)" offset="100%"/></linearGradient></defs><path style="transform:translate(0, 0px); opacity:1" fill="url(#sw-gradient-0)" d="M0,0L20,3.2C40,6,80,13,120,41.2C160,70,200,120,240,120.3C280,120,320,70,360,57C400,44,440,70,480,72.8C520,76,560,57,600,69.7C640,82,680,127,720,120.3C760,114,800,57,840,47.5C880,38,920,76,960,91.8C1000,108,1040,101,1080,88.7C1120,76,1160,57,1200,57C1240,57,1280,76,1320,79.2C1360,82,1400,70,1440,63.3C1480,57,1520,57,1560,60.2C1600,63,1640,70,1680,72.8C1720,76,1760,76,1800,72.8C1840,70,1880,63,1920,60.2C1960,57,2000,57,2040,57C2080,57,2120,57,2160,69.7C2200,82,2240,108,2280,114C2320,120,2360,108,2400,88.7C2440,70,2480,44,2520,28.5C2560,13,2600,6,2640,31.7C2680,57,2720,114,2760,142.5C2800,171,2840,171,2860,171L2880,171L2880,190L2860,190C2840,190,2800,190,2760,190C2720,190,2680,190,2640,190C2600,190,2560,190,2520,190C2480,190,2440,190,2400,190C2360,190,2320,190,2280,190C2240,190,2200,190,2160,190C2120,190,2080,190,2040,190C2000,190,1960,190,1920,190C1880,190,1840,190,1800,190C1760,190,1720,190,1680,190C1640,190,1600,190,1560,190C1520,190,1480,190,1440,190C1400,190,1360,190,1320,190C1280,190,1240,190,1200,190C1160,190,1120,190,1080,190C1040,190,1000,190,960,190C920,190,880,190,840,190C800,190,760,190,720,190C680,190,640,190,600,190C560,190,520,190,480,190C440,190,400,190,360,190C320,190,280,190,240,190C200,190,160,190,120,190C80,190,40,190,20,190L0,190Z"/><defs><linearGradient id="sw-gradient-1" x1="0" x2="0" y1="1" y2="0"><stop stop-color="rgba(172, 204, 71, 1)" offset="0%"/><stop stop-color="rgba(172, 204, 71, 1)" offset="100%"/></linearGradient></defs><path style="transform:translate(0, 50px); opacity:1" fill="url(#sw-gradient-1)" d="M0,76L20,66.5C40,57,80,38,120,41.2C160,44,200,70,240,88.7C280,108,320,120,360,117.2C400,114,440,95,480,88.7C520,82,560,89,600,76C640,63,680,32,720,28.5C760,25,800,51,840,79.2C880,108,920,139,960,129.8C1000,120,1040,70,1080,63.3C1120,57,1160,95,1200,95C1240,95,1280,57,1320,34.8C1360,13,1400,6,1440,12.7C1480,19,1520,38,1560,66.5C1600,95,1640,133,1680,148.8C1720,165,1760,158,1800,129.8C1840,101,1880,51,1920,44.3C1960,38,2000,76,2040,79.2C2080,82,2120,51,2160,53.8C2200,57,2240,95,2280,107.7C2320,120,2360,108,2400,91.8C2440,76,2480,57,2520,44.3C2560,32,2600,25,2640,44.3C2680,63,2720,108,2760,123.5C2800,139,2840,127,2860,120.3L2880,114L2880,190L2860,190C2840,190,2800,190,2760,190C2720,190,2680,190,2640,190C2600,190,2560,190,2520,190C2480,190,2440,190,2400,190C2360,190,2320,190,2280,190C2240,190,2200,190,2160,190C2120,190,2080,190,2040,190C2000,190,1960,190,1920,190C1880,190,1840,190,1800,190C1760,190,1720,190,1680,190C1640,190,1600,190,1560,190C1520,190,1480,190,1440,190C1400,190,1360,190,1320,190C1280,190,1240,190,1200,190C1160,190,1120,190,1080,190C1040,190,1000,190,960,190C920,190,880,190,840,190C800,190,760,190,720,190C680,190,640,190,600,190C560,190,520,190,480,190C440,190,400,190,360,190C320,190,280,190,240,190C200,190,160,190,120,190C80,190,40,190,20,190L0,190Z"/></svg>